<svg width="41" height="55" viewBox="0 0 41 55" fill="none" xmlns="http://www.w3.org/2000/svg">
<path d="M37.1526 30.6307H30.9601C36.7407 24.3937 37.0278 15.6716 36.8572 12.024C36.8277 11.394 36.4378 10.8572 35.8398 10.623C35.2321 10.3847 34.5417 10.5244 34.0808 10.9783L28.3595 16.6122C28.0483 16.9187 28.0445 17.4195 28.351 17.7308C28.6575 18.042 29.1582 18.0458 29.4696 17.7394L35.1907 12.1054C35.2004 12.096 35.2092 12.0873 35.231 12.0895C35.2508 12.0899 35.2681 12.0972 35.2771 12.1031C35.4478 15.7632 35.1382 24.8205 28.7111 30.6307H24.6864C24.7558 30.4855 24.8225 30.3392 24.8888 30.1927C26.4417 28.6252 29.3595 25.4172 31.2921 21.6847C31.4929 21.2968 31.3413 20.8195 30.9533 20.6187C30.5655 20.4178 30.0882 20.5692 29.8872 20.9574C28.8524 22.9561 27.4923 24.8219 26.2386 26.3364C26.6946 24.5327 26.9304 22.6824 26.9304 20.8321C26.9304 13.6495 23.4799 4.86058 21.9964 1.41524C21.7531 0.85045 21.1921 0.485634 20.567 0.485634C19.9419 0.485634 19.3809 0.85045 19.1377 1.41513C17.6541 4.86048 14.2035 13.6496 14.2035 20.832C14.2035 22.6822 14.4395 24.5326 14.8954 26.3363C13.6418 24.8218 12.2817 22.9561 11.2467 20.9574C11.0458 20.5694 10.5682 20.418 10.1806 20.6187C9.7926 20.8195 9.64104 21.2969 9.84186 21.6847C11.7745 25.4172 14.6924 28.6252 16.2452 30.1927C16.3114 30.3392 16.3782 30.4855 16.4476 30.6307H12.4228C5.9972 24.822 5.68628 15.7678 5.85683 12.103C5.866 12.0971 5.88319 12.0899 5.90281 12.0895C5.92274 12.0871 5.9334 12.0961 5.94299 12.1054L11.6726 17.7475C11.9837 18.0539 12.4846 18.0502 12.7912 17.739C13.0977 17.4276 13.0939 16.9268 12.7826 16.6203L7.05295 10.9783C6.59215 10.5245 5.90154 10.3848 5.29404 10.623C4.69593 10.8572 4.30612 11.3941 4.27669 12.0239C4.10604 15.6716 4.39313 24.3938 10.1738 30.6307H3.98138C2.29789 30.6307 0.928375 32.0002 0.928375 33.6836C0.928375 35.3671 2.29789 36.7366 3.98138 36.7366H4.58635L8.12746 51.9218C8.47941 53.4314 9.80779 54.4856 11.3579 54.4856H29.7762C31.3262 54.4856 32.6546 53.4314 33.0066 51.9218L36.5477 36.7366H37.1527C38.8362 36.7366 40.2057 35.3671 40.2057 33.6836C40.2056 32.0003 38.8361 30.6307 37.1526 30.6307ZM20.567 2.09614C22.0243 5.48918 25.3483 13.9812 25.3483 20.8321C25.3483 25.0194 24.0758 28.4125 22.9197 30.6308H21.358V15.25C21.358 14.813 21.0039 14.459 20.567 14.459C20.13 14.459 19.776 14.813 19.776 15.25V30.6307H18.2143C17.0581 28.4123 15.7855 25.0191 15.7855 20.832C15.7855 13.9815 19.1095 5.48907 20.567 2.09614ZM37.1526 35.1547H12.3933C11.9563 35.1547 11.6022 35.5087 11.6022 35.9457C11.6022 36.3827 11.9563 36.7367 12.3933 36.7367H34.9233L31.4659 51.5626C31.2818 52.3521 30.5869 52.9036 29.7762 52.9036H11.3579C10.547 52.9036 9.8523 52.3521 9.66815 51.5626L6.21078 36.7367H8.69562C9.13258 36.7367 9.48664 36.3827 9.48664 35.9457C9.48664 35.5087 9.13258 35.1547 8.69562 35.1547H3.98138C3.17033 35.1547 2.51041 34.4948 2.51041 33.6837C2.51041 32.8727 3.17033 32.2129 3.98138 32.2129H37.1526C37.9636 32.2129 38.6235 32.8727 38.6235 33.6837C38.6235 34.4948 37.9636 35.1547 37.1526 35.1547Z" fill="#0CA941"/>
</svg>
