<svg width="106" height="125" viewBox="0 0 106 125" fill="none" xmlns="http://www.w3.org/2000/svg">
<path d="M90.3488 2.29299C87.349 3.57856 86.8592 11.598 86.9204 13.557C87.2265 20.1685 89.9815 27.7594 93.5323 36.0238C89.1856 41.6558 84.6552 43.0026 80.186 46.9817C71.3089 54.8175 75.472 57.2662 75.8393 57.4499C81.4717 59.8986 93.0426 50.5323 97.0832 44.0433C99.1035 48.5733 101.185 53.2259 103.144 58.062C103.573 59.1639 104.001 60.3883 104.307 61.6126C104.001 62.0412 103.695 62.5309 103.328 63.0206C92.8589 76.1824 85.0225 75.509 75.8393 80.59C61.6971 88.4871 66.5948 92.956 67.0234 93.262C73.9414 98.2819 92.9201 88.4871 99.7769 80.9573C100.94 79.6718 103.267 77.1007 105.287 73.6725C103.328 102.69 75.1046 139.971 49.0854 116.831C43.0857 111.505 41.494 120.81 29.8006 121.116C19.8827 121.361 12.9035 111.75 10.577 108.811C-1.23872 93.8742 -3.25903 69.5709 5.80177 50.2874C14.4952 31.9222 32.8005 19.1278 49.0854 15.6996C54.7178 14.4752 74.0026 14.5365 77.982 9.70029C82.7573 3.82342 86.6143 1.49716 89.1244 0.51768C91.1447 -0.461799 92.4304 1.37473 90.3488 2.29299ZM84.3491 33.4526C84.1654 33.3302 83.7981 33.3302 82.7573 33.82C81.9002 34.2485 76.5739 37.0033 76.0842 42.3292C76.0229 43.2474 75.9005 44.2269 76.4515 44.5942C77.5535 45.3288 80.6146 43.2474 82.4512 40.7987C84.4715 37.9827 85.3286 34.0648 84.3491 33.4526Z" fill="#346E00"/>
</svg>
