<svg width="235" height="221" viewBox="0 0 235 221" fill="none" xmlns="http://www.w3.org/2000/svg">
<path d="M233.485 35.4882C233.24 23.8569 228.22 18.4698 231.709 8.3689C232.995 4.75707 235.077 1.26767 233.975 0.288191C232.505 -0.997374 226.628 3.53272 224.853 4.75706C210.098 15.164 181.324 6.34872 175.324 4.75706C138.836 -4.73163 84.1654 29.4277 57.534 52.6291C45.2284 63.3421 -3.87127 106.133 0.414244 160.617C0.597909 162.637 -1.91219 201.142 24.3519 208.978C41.0042 213.937 51.167 195.449 69.1049 203.101C80.8594 208.121 84.7164 217.365 95.9812 220.12C110.98 223.793 126.959 207.203 130.633 203.163C143.918 188.532 139.204 179.839 153.468 152.291C160.141 139.374 165.774 128.539 177.1 117.336C187.507 107.051 195.527 103.562 200.915 98.1748C191.671 99.7052 180.773 97.5014 169.202 91.6858C161.305 87.7066 154.999 80.8503 155.978 79.9932C156.835 79.2586 165.284 86.6659 177.59 87.5842C194.181 88.8698 202.935 84.8906 208.262 81.5237C209.364 71.2392 206.486 62.179 210.343 60.6485C213.465 59.363 216.22 65.0562 220.873 64.3216C227.791 63.0972 233.73 48.5275 233.485 35.4882Z" fill="#7CA417"/>
</svg>
