<svg width="213" height="225" viewBox="0 0 213 225" fill="none" xmlns="http://www.w3.org/2000/svg">
<path d="M164.437 151.641C170.62 146.805 179.436 156.967 192.048 151.702C204.231 146.621 215.741 130.031 211.7 118.277C204.843 98.1982 207.965 79.5269 202.517 67.4671C193.762 47.9999 171.539 33.9199 116.378 16.7179C110.317 14.8201 104.868 13.1673 99.9706 11.698C102.664 15.6159 105.297 19.9624 107.44 24.8598C108.664 27.5533 113.562 38.8785 112.46 53.2034C112.092 58.162 111.358 67.8956 105.297 70.6504C104.807 70.834 102.664 71.385 100.277 70.2831C95.7463 68.2017 95.6239 60.2434 95.5627 46.2859C95.5014 23.6354 94.4607 14.6365 92.9913 9.73908C79.1553 5.9436 70.0332 4.5356 62.1969 6.37213C50.626 9.12691 34.7084 16.1057 26.2598 9.61665C21.3621 5.82117 23.6273 0.311603 21.4845 0.37282C17.0766 0.434038 16.9542 25.5944 9.91368 53.6319C-0.861313 96.729 0.240677 93.362 0.730453 104.932C0.791672 106.952 0.975296 108.911 1.22018 110.809C46.218 132.97 76.4003 121.951 87.1141 124.399C89.0732 124.828 96.1748 126.481 96.4197 129.297C96.7258 133.398 82.6449 137.561 79.645 138.479C61.401 143.866 28.0965 147.111 7.34233 133.521C14.7502 150.968 27.1169 165.476 38.5041 178.76C57.6053 201.105 75.1147 221.551 103.338 224.673C120.48 226.571 143.499 220.143 154.825 207.288C171.355 188.494 149.56 163.272 164.437 151.641Z" fill="#9FBC50"/>
</svg>
