<svg width="210" height="138" viewBox="0 0 210 138" fill="none" xmlns="http://www.w3.org/2000/svg">
<path d="M89.1196 98.5086C88.2013 93.9785 88.8747 92.999 90.5277 89.2035C93.8949 81.184 111.159 79.9597 122.057 64.9002C128.975 55.3503 146.79 61.4108 159.157 53.024C167.912 47.0247 159.035 42.1273 179.972 33.4344C211.869 20.2727 210.277 0.989186 209.114 0.315794C207.277 -0.724902 206.787 4.90711 204.155 7.41702C191.727 19.1708 126.036 -15.0498 61.7535 15.4365C33.7753 28.7207 12.6538 49.5958 3.59302 78.368C-3.01892 99.4268 2.49103 111.425 10.4498 110.507C19.878 109.466 12.2865 114.548 16.8169 123.485C35.367 160.644 92.6092 115.527 89.1196 98.5086Z" fill="#346E00"/>
</svg>
