<svg width="191" height="150" viewBox="0 0 191 150" fill="none" xmlns="http://www.w3.org/2000/svg">
<path d="M187.67 104.22C183.506 105.995 174.752 98.8937 172.793 96.9347C166.303 90.3232 161.161 80.2224 156.079 68.6523C146.1 67.6728 140.406 71.0398 132.019 71.8968C115.428 73.5497 116.959 66.877 117.142 66.326C119.958 58.1841 140.713 55.3069 151.243 57.3271C148.549 50.8993 145.733 44.2878 142.733 37.6763C141.998 36.1459 141.141 34.6154 140.223 33.1462C139.488 33.0238 138.692 32.9014 137.835 32.8401C114.326 30.9424 107.469 39.6965 93.4495 44.2266C71.8383 51.2053 71.8995 41.9003 72.022 41.1045C73.4913 29.1671 101.714 19.0662 116.04 19.3111C118.489 19.3723 123.326 19.4335 128.774 20.6579C97.1228 -5.11464 31.7382 -11.8485 30.575 37.0641C30.3301 48.2669 19.1877 41.1045 7.7393 52.797C-1.99493 62.7142 1.18857 79.0592 1.98445 84.3239C6.02509 110.77 29.0444 136.114 57.5736 145.235C84.756 153.928 115.428 147.317 134.529 133.971C141.202 129.319 159.63 109.484 168.385 110.096C178.976 110.77 185.098 109.056 188.527 107.464C191.282 105.995 190.669 102.934 187.67 104.22ZM149.896 80.5897C149.835 80.957 149.528 81.3243 147.998 81.8752C146.712 82.365 138.815 85.181 132.876 80.5897C131.835 79.7939 130.795 78.998 130.917 78.0798C131.162 76.2432 136.305 75.0801 140.529 75.5699C145.427 76.1208 150.202 78.9368 149.896 80.5897Z" fill="#9FBC50"/>
</svg>
