<svg width="51" height="53" viewBox="0 0 51 53" fill="none" xmlns="http://www.w3.org/2000/svg">
<path d="M5.30899 37.1192C4.36869 35.058 0.0162964 34.3461 0.0162964 34.3461C0.908182 32.4141 2.99368 31.2923 5.13354 31.5937L5.30899 37.1192Z" fill="#F3D55B"/>
<path d="M6.41287 39.6448H7.96632C10.0182 39.4578 11.9644 40.571 12.8094 42.4151C12.8094 42.4151 8.65166 43.0965 7.58253 45.051L6.41287 39.6448Z" fill="#F3D55B"/>
<path d="M11.8956 5.69237V5.65651C11.8956 5.65651 10.7908 -0.0751444 2.72839 0.2772C2.434 0.289293 2.16335 0.43911 2.00057 0.680087C1.8378 0.921064 1.80262 1.22399 1.90598 1.49472C3.32728 5.22427 7.03727 7.62945 11.0914 7.44961L11.8956 5.69237Z" fill="#24AE5F"/>
<path d="M14.2413 6.79242C16.5227 7.02259 18.3375 8.77222 18.612 11.0062C18.612 11.0062 15.2583 10.5131 13.3942 11.5172H11.8956L14.2413 6.79242Z" fill="#F3D55B"/>
<path d="M12.188 15.1867C12.5627 13.9315 12.9648 12.7033 13.3851 11.5198H13.3942C13.9439 9.98937 14.5721 8.48722 15.2766 7.01913C15.6604 6.23016 16.0625 5.47706 16.4829 4.75085C16.812 4.20081 16.816 3.51999 16.4932 2.96631C16.1705 2.41262 15.5704 2.07074 14.9203 2.07017H14.9111C14.2647 2.06607 13.6654 2.40112 13.3394 2.94879C12.8368 3.81844 12.3525 4.73292 11.8956 5.68327V5.69223C11.6215 6.26603 11.3473 6.84878 11.0915 7.44947C10.2965 9.3143 9.57458 11.2957 8.93493 13.3488L7.41803 18.9253V18.9343C4.14665 32.6695 3.73544 47.5253 3.68061 51.3715C3.67642 51.6114 3.77105 51.8427 3.94307 52.0132C4.11508 52.1836 4.34993 52.2788 4.59441 52.277H6.42199C6.91962 52.2771 7.32583 51.8866 7.33579 51.3984C7.52516 41.5536 8.57068 31.7426 10.461 22.0722L12.188 15.1867Z" fill="#4FBA6F"/>
<path d="M21.9464 30.0338H27.4291V35.4849H21.9464V30.0338Z" fill="#7F8C8D"/>
<path d="M28.4709 21.4898C28.9834 19.539 29.2476 17.5334 29.2577 15.5188C29.2577 9.08153 25.9863 2.0705 21.9473 2.0705V20.7188L28.4709 21.4898Z" fill="#7F8C8D"/>
<path d="M27.4218 30.0174L30.1609 25.3628L34.9683 28.0861L32.2292 32.7407L27.4218 30.0174Z" fill="#547580"/>
<path d="M19.3604 26.6448C17.3811 26.1082 15.4779 25.3311 13.6949 24.3317C8.02027 21.113 3.46045 14.8282 5.47993 11.3944L21.9474 20.7186L19.3604 26.6448Z" fill="#547580"/>
<path d="M26.5154 35.2426H22.8602C21.8509 35.2426 21.0327 36.0454 21.0327 37.0357V50.4839C21.0327 51.4742 21.8509 52.2771 22.8602 52.2771H26.5154C27.5248 52.2771 28.343 51.4742 28.343 50.4839V37.0357C28.343 36.0454 27.5248 35.2426 26.5154 35.2426Z" fill="#F0C419"/>
<path d="M47.5161 40.3807L49.3437 37.2751C49.8484 36.4175 49.5489 35.3209 48.6748 34.8257L36.8046 28.1016C35.9305 27.6064 34.8128 27.9002 34.3081 28.7578L32.4805 31.8635C31.9759 32.7211 32.2754 33.8177 33.1494 34.3129L45.0196 41.037C45.8937 41.5322 47.0114 41.2383 47.5161 40.3807Z" fill="#F0C419"/>
<path d="M30.1715 25.3806C30.1723 27.3012 29.1268 29.0758 27.4301 30.0337C25.7358 31.0019 23.6418 31.0019 21.9474 30.0337C20.6504 29.2973 19.7162 28.0731 19.3613 26.6447C19.258 26.231 19.2059 25.8065 19.206 25.3806C19.2052 23.4599 20.2507 21.6854 21.9474 20.7275V20.7185C23.6447 19.7602 25.7338 19.762 27.4294 20.7232C29.125 21.6844 30.17 23.4593 30.1715 25.3806Z" fill="#95A5A5"/>
<path d="M24.6879 27.1737C25.6972 27.1737 26.5154 26.3709 26.5154 25.3806C26.5154 24.3903 25.6972 23.5875 24.6879 23.5875C23.6785 23.5875 22.8603 24.3903 22.8603 25.3806C22.8603 26.3709 23.6785 27.1737 24.6879 27.1737Z" fill="#547580"/>
</svg>
