<svg width="53" height="53" viewBox="0 0 53 53" fill="none" xmlns="http://www.w3.org/2000/svg">
<g clip-path="url(#clip0_2_736)">
<path d="M52.5965 41.0335C52.0968 39.1888 50.1967 38.0979 48.352 38.5967L43.6387 40.0392C44.2658 37.2218 42.7824 34.3603 40.1185 33.2487C40.55 31.9365 40.3259 30.4973 39.5163 29.3786C38.7071 28.2599 37.41 27.5971 36.0289 27.5966C35.9427 27.5966 35.8565 27.5966 35.7707 27.6042C35.0969 25.3563 33.1825 23.7022 30.8609 23.3615V22.133C30.8592 21.4475 31.1318 20.7893 31.6179 20.3056L33.9437 17.9799C35.0788 18.8971 36.4928 19.3989 37.9522 19.4027C40.1223 19.3291 42.173 18.3929 43.6501 16.8014C46.4296 14.0202 49.067 3.57236 49.3581 2.38972C49.43 2.097 49.3438 1.78788 49.1305 1.57507C48.9177 1.36184 48.6086 1.27562 48.3159 1.34754C47.1332 1.63858 36.6879 4.27598 33.9042 7.05553C30.9118 10.0487 30.4837 13.9264 32.7249 16.7627L30.3991 19.0885C29.9714 19.5192 29.64 20.036 29.4268 20.6042C29.0949 20.2446 28.7139 19.9338 28.295 19.6811L25.3603 17.9239C26.132 16.3565 26.2199 14.5396 25.6033 12.9048C24.8657 11.0888 23.5219 9.58442 21.8005 8.64739C18.3948 6.68248 7.61803 6.83852 6.40342 6.86333C6.10187 6.86964 5.82556 7.03282 5.67499 7.294C5.52401 7.55475 5.52064 7.87607 5.66616 8.14018C6.25454 9.20633 11.505 18.617 14.9099 20.5828C16.2498 21.3819 17.7757 21.8167 19.3356 21.8437C19.725 21.8441 20.114 21.8121 20.4984 21.7482C22.0672 21.49 23.4799 20.6467 24.4518 19.3879L27.4114 21.1581C28.226 21.6514 28.8102 22.4501 29.0331 23.3762C26.119 23.8519 23.9766 26.3665 23.9703 29.3193V29.3794C22.2392 29.133 20.4863 29.649 19.1648 30.7938C17.8434 31.9386 17.0826 33.5999 17.0796 35.3486H16.8126C14.859 35.3499 12.9101 35.5341 10.991 35.8991C9.79743 36.1338 8.65222 36.5699 7.605 37.1882V34.4873C7.605 34.0116 7.21933 33.6259 6.74367 33.6259H1.57569C1.10002 33.6259 0.714355 34.0116 0.714355 34.4873V51.7139C0.714355 52.1895 1.10002 52.5752 1.57569 52.5752H6.74367C7.21933 52.5752 7.605 52.1895 7.605 51.7139V48.9574C8.71488 49.648 9.94043 50.1313 11.2227 50.3849C12.8752 50.6965 14.5537 50.853 16.2355 50.8525H28.5957C30.1817 50.8509 31.7605 50.6418 33.2926 50.2314L50.1634 45.2539C52.0005 44.7601 53.0898 42.8705 52.5965 41.0335ZM35.1238 8.27182C36.9323 6.46295 43.6051 4.38911 47.3208 3.38479C46.3173 7.09675 44.2393 13.775 42.4338 15.5818C40.4907 17.5231 37.5888 18.5249 35.1743 16.7489L37.7309 14.1926L39.6113 15.133C40.0365 15.3471 40.5551 15.1759 40.7691 14.7503C40.9832 14.3247 40.812 13.8061 40.3864 13.592L39.0187 12.909L40.7759 11.1452L42.6613 12.0927C43.0865 12.3068 43.6051 12.1352 43.8191 11.71C44.0332 11.2844 43.862 10.7658 43.4364 10.5517L42.0582 9.86452L44.259 7.66284C44.4828 7.44666 44.5728 7.12619 44.4937 6.82506C44.4151 6.52393 44.18 6.28883 43.8784 6.21018C43.5773 6.13112 43.2572 6.22112 43.0411 6.44486L40.8411 8.64739L40.1581 7.27801C39.9452 6.8524 39.4275 6.67996 39.0023 6.89277C38.5767 7.10558 38.4043 7.6233 38.6171 8.0485L39.5604 9.92971L37.7991 11.6911L37.1161 10.3234C36.9028 9.89817 36.3855 9.72574 35.9599 9.93855C35.5343 10.1514 35.3623 10.6687 35.5751 11.0943L36.5155 12.9746L33.9593 15.5309C32.1794 13.1176 33.1867 10.214 35.1238 8.27182ZM20.2116 20.0487C18.6652 20.2509 17.0969 19.9124 15.7712 19.091C13.5611 17.8154 9.82814 11.9047 7.89267 8.57421C11.743 8.58347 18.7291 8.86441 20.9392 10.14C23.3718 11.5447 25.1235 14.172 23.8765 17.0365L20.7832 15.1881L21.2349 12.9805C21.3173 12.5204 21.0174 12.0784 20.559 11.9846C20.101 11.8913 19.6518 12.1802 19.5475 12.6361L19.2165 14.2511L17.0632 12.9662L17.5006 10.8272C17.5835 10.3671 17.2836 9.92509 16.8252 9.8313C16.3672 9.73793 15.918 10.0269 15.8133 10.4828L15.4966 12.0334L12.8264 10.4344C12.418 10.1905 11.8889 10.3234 11.6446 10.7317C11.4002 11.1401 11.5336 11.6692 11.9419 11.9135L14.6117 13.5096L13.506 14.4904C13.1494 14.8062 13.1157 15.3513 13.4316 15.7079C13.747 16.065 14.2921 16.0982 14.6491 15.7824L16.1624 14.4408L18.2896 15.713L17.2365 16.6475C16.8794 16.9629 16.8462 17.5076 17.1616 17.8642C17.4766 18.2213 18.0217 18.2549 18.3784 17.9395L19.8428 16.6475L22.9601 18.5123C22.2535 19.3324 21.2799 19.8766 20.2116 20.0487ZM23.1089 31.042C23.6397 31.0378 24.1663 31.1366 24.6592 31.333C24.959 31.4541 25.3018 31.3973 25.5461 31.1854C25.7909 30.9738 25.8961 30.6428 25.8187 30.3287C25.7362 29.9985 25.6942 29.6595 25.6929 29.3193C25.6921 27.0621 27.4358 25.188 29.6871 25.0261C31.9384 24.8646 33.9319 26.4699 34.2537 28.7044C34.2877 28.953 34.429 29.1746 34.6397 29.3109C34.8509 29.4472 35.1112 29.4846 35.3518 29.4131C35.5717 29.3496 35.8001 29.318 36.0289 29.3193C37.4559 29.3193 38.6129 30.4763 38.6129 31.9033C38.6137 32.397 38.4703 32.8807 38.2003 33.2941C38.0468 33.5305 38.0186 33.8266 38.1242 34.0873C38.2297 34.3481 38.4564 34.5407 38.7311 34.6034C40.6741 35.0647 42.0494 36.7966 42.0582 38.7939C42.0616 39.4378 41.9181 40.0741 41.6389 40.6545L37.4071 41.9507C37.196 40.6049 36.2072 39.5118 34.8891 39.1678L31.1027 38.1563L23.7633 36.003C23.2469 35.8525 22.7186 35.7368 22.1891 35.638C22.2253 35.5454 22.2451 35.4479 22.2476 35.3486C22.2476 34.8729 22.6333 34.4873 23.1089 34.4873C23.1968 34.4839 23.2843 34.4974 23.3672 34.5268C23.8075 34.7013 24.3059 34.4881 24.4834 34.049C24.6608 33.6104 24.451 33.1103 24.0132 32.9299C23.7255 32.8168 23.4185 32.7604 23.1089 32.7646C21.6819 32.7646 20.5249 33.9216 20.5249 35.3486C20.5249 35.3709 20.5363 35.3898 20.538 35.4121C20.0812 35.3734 19.6232 35.3486 19.164 35.3486H18.8023C18.8052 32.9711 20.7314 31.0449 23.1089 31.042ZM5.88234 50.8525H2.43702V35.3486H5.88234V50.8525ZM49.6958 43.5922L32.8275 48.5735C31.4468 48.941 30.0244 49.1282 28.5957 49.1299H16.2355C14.6626 49.129 13.093 48.981 11.5474 48.6879C10.4401 48.4692 9.38317 48.0469 8.43016 47.4425L7.605 46.9257V39.2338L7.69878 39.167C8.77713 38.3864 10.0111 37.8481 11.3165 37.5881C13.1284 37.2445 14.9684 37.0717 16.8126 37.0713H19.164C20.5569 37.0708 21.9427 37.2681 23.2805 37.6567L30.6388 39.8155L34.4433 40.8316C35.3564 41.0701 35.904 42.0029 35.6672 42.9164V42.9281L35.6621 42.9387V42.9462C35.4565 43.6974 34.7747 44.2189 33.9963 44.2201C33.8474 44.221 33.6989 44.202 33.5551 44.1634L23.3234 41.4242C23.0231 41.335 22.698 41.4158 22.4743 41.6353C22.251 41.8548 22.1643 42.1783 22.248 42.4802C22.3317 42.7822 22.5727 43.0148 22.8772 43.0875L33.1105 45.8276C33.3995 45.9049 33.6972 45.9436 33.9963 45.9428C35.3829 45.9377 36.632 45.1033 37.1674 43.824L48.8231 40.2579C49.7446 40.0161 50.6883 40.5649 50.9344 41.4856C50.9726 41.6311 50.9916 41.7812 50.9903 41.9318C50.9848 42.7145 50.4536 43.3962 49.6958 43.5922Z" fill="#0CA941"/>
<path d="M28.3236 30.5751C28.5882 30.5751 28.838 30.4532 29.0016 30.245C29.1648 30.0368 29.2232 29.7647 29.1597 29.5077C29.145 29.4459 29.1379 29.3828 29.1383 29.3193C29.1383 28.8436 29.5239 28.458 29.9996 28.458C30.4189 28.4546 30.7773 28.7595 30.8412 29.1738C30.8698 29.4013 30.9888 29.6074 31.1717 29.7458C31.3543 29.8846 31.5852 29.9434 31.8119 29.9094C32.2821 29.8438 32.6109 29.4102 32.5466 28.9395C32.3523 27.5992 31.1545 26.6377 29.804 26.7374C28.4536 26.8375 27.4106 27.9651 27.4156 29.3193C27.4144 29.5224 27.4388 29.7252 27.488 29.922C27.5839 30.3056 27.9283 30.5751 28.3236 30.5751Z" fill="#0CA941"/>
<path d="M37.3142 36.9305C37.2624 37.1534 37.302 37.3877 37.4235 37.5816C37.5451 37.7755 37.7385 37.9134 37.9618 37.9643C38.3425 38.0598 38.6104 38.4008 38.6129 38.7937C38.6129 39.2693 38.9986 39.655 39.4742 39.655C39.9499 39.655 40.3355 39.2693 40.3355 38.7937C40.3313 37.5976 39.5087 36.5596 38.345 36.2829C37.8815 36.1773 37.4202 36.4671 37.3142 36.9305Z" fill="#0CA941"/>
<path d="M31.5604 33.2682C30.3264 32.9343 29.0344 33.5584 28.5285 34.7326C28.3438 35.1709 28.5495 35.6764 28.9881 35.861C29.4264 36.0461 29.9319 35.8404 30.117 35.4018C30.2839 35.0165 30.7104 34.8142 31.1141 34.9286C31.3354 34.9879 31.5238 35.133 31.6377 35.3315C31.7517 35.53 31.7824 35.7656 31.7223 35.9864C31.5991 36.446 31.8716 36.9183 32.3313 37.0416C32.4044 37.0609 32.4797 37.071 32.555 37.071C32.9449 37.0706 33.2855 36.809 33.3865 36.4326C33.7532 35.0548 32.9369 33.64 31.5604 33.2682Z" fill="#0CA941"/>
<path d="M35.1676 31.9031C35.6432 31.9031 36.0289 32.2888 36.0289 32.7644C36.0289 33.2401 36.4146 33.6258 36.8902 33.6258C37.3659 33.6258 37.7516 33.2401 37.7516 32.7644C37.7516 31.3374 36.5946 30.1804 35.1676 30.1804C34.6919 30.1804 34.3062 30.5661 34.3062 31.0418C34.3062 31.5174 34.6919 31.9031 35.1676 31.9031Z" fill="#0CA941"/>
</g>
<defs>
<clipPath id="clip0_2_736">
<rect width="52" height="52" fill="white" transform="translate(0.714355 0.894531)"/>
</clipPath>
</defs>
</svg>
