<svg width="102" height="211" viewBox="0 0 102 211" fill="none" xmlns="http://www.w3.org/2000/svg">
<path d="M11.8608 78.1662C11.8608 78.1662 -1.85794 76.2955 0.76109 73.3023C3.38012 70.3091 10.2395 75.2978 10.2395 75.2978C10.2395 75.2978 2.75654 68.189 5.12614 65.9441C7.49574 63.6992 12.4844 73.1776 12.4844 73.1776C12.4844 73.1776 11.1125 64.1981 14.3551 64.6969C17.5977 65.0711 17.2236 76.5449 15.3528 77.2932C13.3574 78.1662 11.8608 78.1662 11.8608 78.1662Z" fill="#E8A0A2"/>
<path d="M31.8152 104.856L27.4502 106.976C27.4502 106.976 16.5999 105.978 9.86525 98.6199C4.50247 92.6336 3.13059 82.4069 12.7337 77.0441C22.3368 71.6813 30.4434 72.8038 34.6837 84.4023C38.5499 95.0032 35.432 103.11 35.432 103.11L31.8152 104.856Z" fill="#399648"/>
<path d="M13.981 76.4197C22.5864 72.4288 29.6952 74.1748 33.6861 85.0251C37.5523 95.626 34.4344 103.732 34.4344 103.732L35.6815 103.109C35.6815 103.109 38.7994 95.0024 34.9332 84.4015C30.6929 73.1771 23.0852 71.6805 13.981 76.4197Z" fill="#497E44"/>
<path d="M11.3618 82.6567C11.7359 83.5298 11.7359 84.4028 11.3618 84.6522C10.9876 84.9016 10.2393 84.2781 9.86519 83.405C9.49104 82.532 9.49104 81.659 9.86519 81.4096C10.2393 81.2849 10.8629 81.7837 11.3618 82.6567Z" fill="#B1D8B0"/>
<path d="M9.24174 88.3933C9.61589 89.2663 9.61589 90.1393 9.24174 90.3888C8.86759 90.6382 8.1193 90.0146 7.74515 89.1416C7.371 88.2686 7.371 87.3956 7.74515 87.1462C8.24401 87.0214 8.86759 87.5203 9.24174 88.3933Z" fill="#B1D8B0"/>
<path d="M14.854 87.6453C15.2281 88.5183 15.2281 89.3913 14.854 89.6407C14.4798 89.8902 13.7315 89.2666 13.3574 88.3936C12.9832 87.5206 12.9832 86.6475 13.3574 86.3981C13.7315 86.2734 14.4798 86.7723 14.854 87.6453Z" fill="#B1D8B0"/>
<path d="M18.0965 81.1599C18.4706 82.0329 18.4706 82.906 18.0965 83.1554C17.7223 83.4048 16.974 82.7812 16.5999 81.9082C16.2257 81.0352 16.2257 80.1622 16.5999 79.9128C16.974 79.788 17.7223 80.2869 18.0965 81.1599Z" fill="#B1D8B0"/>
<path d="M21.0898 87.2709C21.4639 88.1439 21.4639 89.0169 21.0898 89.2663C20.7156 89.5158 19.9673 88.8922 19.5932 88.0192C19.219 87.1462 19.219 86.2732 19.5932 86.0237C19.9673 85.899 20.5909 86.3979 21.0898 87.2709Z" fill="#B1D8B0"/>
<path d="M22.4616 77.5432C22.8357 78.4162 22.8357 79.2892 22.4616 79.5386C22.0874 79.7881 21.3391 79.1645 20.965 78.2915C20.5908 77.4185 20.5908 76.5455 20.965 76.296C21.3391 76.0466 22.0874 76.6702 22.4616 77.5432Z" fill="#B1D8B0"/>
<path d="M25.5795 83.1554C25.9537 84.0284 25.9537 84.9014 25.5795 85.1508C25.2054 85.4002 24.4571 84.7767 24.0829 83.9037C23.7088 83.0306 23.7088 82.1576 24.0829 81.9082C24.5818 81.6588 25.2054 82.2824 25.5795 83.1554Z" fill="#B1D8B0"/>
<path d="M28.0738 77.9176C28.4479 78.7906 28.4479 79.6636 28.0738 79.9131C27.6996 80.1625 26.9513 79.5389 26.5772 78.6659C26.203 77.7929 26.203 76.9199 26.5772 76.6705C26.9513 76.5457 27.6996 77.0446 28.0738 77.9176Z" fill="#B1D8B0"/>
<path d="M31.1918 83.0304C31.5659 83.9034 31.5659 84.7764 31.1918 85.0258C30.8176 85.2753 30.0693 84.6517 29.6952 83.7787C29.321 82.9057 29.321 82.0326 29.6952 81.7832C30.0693 81.5338 30.8176 82.1574 31.1918 83.0304Z" fill="#B1D8B0"/>
<path d="M34.6838 95.2523C35.0579 96.1253 35.0579 96.9983 34.6838 97.2478C34.3096 97.4972 33.5613 96.8736 33.1872 96.0006C32.813 95.1276 32.813 94.2546 33.1872 94.0052C33.5613 93.8805 34.3096 94.3793 34.6838 95.2523Z" fill="#B1D8B0"/>
<path d="M10.9877 95.1286C11.3619 96.0016 11.3619 96.8746 10.9877 97.1241C10.6136 97.3735 9.86531 96.7499 9.49116 95.8769C9.11701 95.0039 9.11701 94.1309 9.49116 93.8815C9.86531 93.632 10.6136 94.2556 10.9877 95.1286Z" fill="#B1D8B0"/>
<path d="M16.7246 93.3818C17.0988 94.2549 17.0988 95.1279 16.7246 95.3773C16.3505 95.6267 15.6022 95.0031 15.2281 94.1301C14.8539 93.2571 14.8539 92.3841 15.2281 92.1347C15.6022 92.01 16.2258 92.5088 16.7246 93.3818Z" fill="#B1D8B0"/>
<path d="M16.3504 100.491C16.7246 101.364 16.7246 102.237 16.3504 102.486C15.9763 102.736 15.228 102.112 14.8539 101.239C14.4797 100.366 14.4797 99.4931 14.8539 99.2437C15.228 98.9942 15.9763 99.6178 16.3504 100.491Z" fill="#B1D8B0"/>
<path d="M20.3415 97.1235C20.7157 97.9966 20.7157 98.8696 20.3415 99.119C19.9674 99.3684 19.2191 98.7448 18.8449 97.8718C18.4708 96.9988 18.4708 96.1258 18.8449 95.8764C19.3438 95.7517 19.9674 96.2505 20.3415 97.1235Z" fill="#B1D8B0"/>
<path d="M24.3324 91.3869C24.7066 92.2599 24.7066 93.133 24.3324 93.3824C23.9583 93.6318 23.21 93.0082 22.8358 92.1352C22.4617 91.2622 22.4617 90.3892 22.8358 90.1398C23.21 89.8903 23.8335 90.5139 24.3324 91.3869Z" fill="#B1D8B0"/>
<path d="M28.9469 89.8901C29.321 90.7632 29.321 91.6362 28.9469 91.8856C28.5727 92.135 27.8244 91.5115 27.4503 90.6384C27.0761 89.7654 27.0761 88.8924 27.4503 88.643C27.8244 88.5183 28.448 89.0171 28.9469 89.8901Z" fill="#B1D8B0"/>
<path d="M25.8291 98.9946C26.2032 99.8676 26.2032 100.741 25.8291 100.99C25.4549 101.239 24.7066 100.616 24.3325 99.7429C23.9583 98.8699 23.9583 97.9969 24.3325 97.7474C24.7066 97.498 25.3302 98.1216 25.8291 98.9946Z" fill="#B1D8B0"/>
<path d="M34.4342 89.7651C34.8084 90.6381 34.8084 91.5111 34.4342 91.7606C34.0601 92.01 33.3118 91.3864 32.9377 90.5134C32.5635 89.6404 32.5635 88.7674 32.9377 88.5179C33.3118 88.2685 34.0601 88.8921 34.4342 89.7651Z" fill="#B1D8B0"/>
<path d="M30.6927 97.3728C31.0669 98.2458 31.0669 99.1188 30.6927 99.3683C30.3186 99.6177 29.5703 98.9941 29.1961 98.1211C28.822 97.2481 28.822 96.3751 29.1961 96.1257C29.5703 96.0009 30.3186 96.4998 30.6927 97.3728Z" fill="#B1D8B0"/>
<path d="M30.3187 102.486C30.6928 103.359 30.6928 104.232 30.3187 104.482C29.9445 104.731 29.1962 104.108 28.8221 103.235C28.4479 102.362 28.4479 101.489 28.8221 101.239C29.1962 100.99 29.8198 101.613 30.3187 102.486Z" fill="#B1D8B0"/>
<path d="M23.0851 102.611C23.4593 103.484 23.4593 104.357 23.0851 104.607C22.711 104.856 21.9627 104.233 21.5885 103.36C21.2144 102.487 21.2144 101.614 21.5885 101.364C21.9627 101.239 22.5863 101.738 23.0851 102.611Z" fill="#B1D8B0"/>
<path d="M33.3119 17.8036C33.3119 17.8036 15.4775 16.9306 18.4707 12.815C21.3391 8.69936 30.9423 14.3116 30.9423 14.3116C30.9423 14.3116 20.5909 5.95562 23.4593 2.83772C26.3278 -0.280171 33.8107 11.4431 33.8107 11.4431C33.8107 11.4431 31.067 0.093976 35.1826 0.343408C39.2982 0.468123 40.1712 15.1846 37.8016 16.5565C35.3073 17.6789 33.3119 17.8036 33.3119 17.8036Z" fill="#E8A0A2"/>
<path d="M61.8718 49.9802L56.509 53.0981C56.509 53.0981 42.4162 52.9734 33.0625 44.2433C25.4548 37.1345 22.5864 24.0393 34.4344 16.1822C46.2824 8.20042 56.6338 8.69928 63.4931 23.291C69.7289 36.5109 66.4863 47.2365 66.4863 47.2365L61.8718 49.9802Z" fill="#399648"/>
<path d="M35.806 15.3097C46.4068 9.32329 55.7605 10.8199 61.9963 24.1645C68.2321 37.3843 64.9895 48.1099 64.9895 48.1099L66.4861 47.2369C66.4861 47.2369 69.604 36.3866 63.4929 23.2915C57.0077 9.32329 47.0304 8.32557 35.806 15.3097Z" fill="#497E44"/>
<path d="M33.1872 23.665C33.8108 24.7874 33.9355 25.9099 33.4366 26.1593C32.9378 26.4087 31.94 25.9099 31.3165 24.7874C30.6929 23.665 30.5682 22.5425 31.067 22.2931C31.5659 21.919 32.5636 22.5425 33.1872 23.665Z" fill="#B1D8B0"/>
<path d="M31.1917 31.2725C31.8152 32.3949 31.94 33.5173 31.4411 33.7668C30.9422 34.0162 29.9445 33.5173 29.3209 32.3949C28.6973 31.2725 28.5726 30.15 29.0715 29.9006C29.5704 29.6512 30.5681 30.2747 31.1917 31.2725Z" fill="#B1D8B0"/>
<path d="M38.3004 29.6512C38.9239 30.7737 39.0487 31.8961 38.5498 32.1456C38.0509 32.395 37.0532 31.8961 36.4296 30.7737C35.806 29.6512 35.6813 28.5288 36.1802 28.2794C36.6791 28.0299 37.6768 28.6535 38.3004 29.6512Z" fill="#B1D8B0"/>
<path d="M41.6679 20.921C42.2914 22.0435 42.4162 23.1659 41.9173 23.4153C41.4184 23.6648 40.4207 23.1659 39.7971 22.0435C39.1736 20.921 39.0488 19.7986 39.5477 19.5491C40.1713 19.2997 41.0443 19.9233 41.6679 20.921Z" fill="#B1D8B0"/>
<path d="M46.1576 28.5292C46.7812 29.6517 46.9059 30.7741 46.4071 31.0235C45.9082 31.273 44.9105 30.7741 44.2869 29.6517C43.6633 28.5292 43.5386 27.4068 44.0375 27.1574C44.6611 26.7832 45.5341 27.4068 46.1576 28.5292Z" fill="#B1D8B0"/>
<path d="M46.9059 15.8079C47.5295 16.9304 47.6542 18.0528 47.1553 18.3022C46.6565 18.5517 45.6587 18.0528 45.0352 16.9304C44.4116 15.8079 44.2869 14.6855 44.7857 14.436C45.4093 14.0619 46.2823 14.6855 46.9059 15.8079Z" fill="#B1D8B0"/>
<path d="M51.6452 22.6669C52.2688 23.7894 52.3935 24.9118 51.8946 25.1612C51.3958 25.4107 50.398 24.9118 49.7745 23.7894C49.1509 22.6669 49.0262 21.5445 49.525 21.2951C50.0239 20.9209 51.0216 21.5445 51.6452 22.6669Z" fill="#B1D8B0"/>
<path d="M54.2641 15.8079C54.8877 16.9304 55.0124 18.0528 54.5136 18.3022C54.0147 18.5517 53.017 18.0528 52.3934 16.9304C51.7698 15.8079 51.6451 14.6855 52.144 14.436C52.6428 14.0619 53.5158 14.6855 54.2641 15.8079Z" fill="#B1D8B0"/>
<path d="M58.7539 21.919C59.3775 23.0414 59.5022 24.1638 59.0033 24.4133C58.5045 24.6627 57.5067 24.1638 56.8832 23.0414C56.2596 21.919 56.1349 20.7965 56.6337 20.5471C57.1326 20.2976 58.1303 20.7965 58.7539 21.919Z" fill="#B1D8B0"/>
<path d="M64.6157 37.2593C65.2392 38.3818 65.364 39.5042 64.8651 39.7536C64.3662 40.0031 63.3685 39.5042 62.7449 38.3818C62.1213 37.2593 61.9966 36.1369 62.4955 35.8875C62.9944 35.5133 63.9921 36.1369 64.6157 37.2593Z" fill="#B1D8B0"/>
<path d="M34.185 39.6283C34.8085 40.7507 34.9333 41.8732 34.4344 42.1226C33.9355 42.372 32.9378 41.8732 32.3142 40.7507C31.6906 39.6283 31.5659 38.5058 32.0648 38.2564C32.5637 38.007 33.4367 38.6306 34.185 39.6283Z" fill="#B1D8B0"/>
<path d="M41.2937 36.8851C41.9172 38.0075 42.042 39.1299 41.5431 39.3794C41.0442 39.6288 40.0465 39.13 39.4229 38.0075C38.7994 36.8851 38.6746 35.7626 39.1735 35.5132C39.6724 35.139 40.5454 35.7626 41.2937 36.8851Z" fill="#B1D8B0"/>
<path d="M41.5432 45.9896C42.1668 47.112 42.2915 48.2344 41.7926 48.4839C41.2938 48.7333 40.296 48.2344 39.6725 47.112C39.0489 45.9896 38.9242 44.8671 39.423 44.6177C40.0466 44.2435 40.9196 44.8671 41.5432 45.9896Z" fill="#B1D8B0"/>
<path d="M46.407 41.2498C47.0306 42.3723 47.1553 43.4947 46.6564 43.7441C46.1576 43.9936 45.1599 43.4947 44.5363 42.3723C43.9127 41.2498 43.788 40.1274 44.2868 39.8779C44.7857 39.5038 45.7834 40.1274 46.407 41.2498Z" fill="#B1D8B0"/>
<path d="M50.7721 33.3928C51.3957 34.5153 51.5204 35.6377 51.0215 35.8871C50.5227 36.1366 49.525 35.6377 48.9014 34.5153C48.2778 33.3928 48.1531 32.2704 48.6519 32.021C49.2755 31.7715 50.1485 32.2704 50.7721 33.3928Z" fill="#B1D8B0"/>
<path d="M56.6337 31.0235C57.2573 32.1459 57.382 33.2684 56.8831 33.5178C56.3843 33.7672 55.3865 33.2684 54.763 32.1459C54.1394 31.0235 54.0147 29.9011 54.5135 29.6516C55.0124 29.2775 55.8854 29.901 56.6337 31.0235Z" fill="#B1D8B0"/>
<path d="M53.5159 42.9962C54.1395 44.1187 54.2642 45.2411 53.7653 45.4905C53.2664 45.74 52.2687 45.2411 51.6451 44.1187C51.0216 42.9962 50.8968 41.8738 51.3957 41.6243C51.8946 41.3749 52.8923 41.9985 53.5159 42.9962Z" fill="#B1D8B0"/>
<path d="M63.7426 30.15C64.3661 31.2725 64.4909 32.3949 63.992 32.6443C63.4931 32.8938 62.4954 32.3949 61.8718 31.2725C61.2482 30.15 61.1235 29.0276 61.6224 28.7781C62.1213 28.5287 63.119 29.1523 63.7426 30.15Z" fill="#B1D8B0"/>
<path d="M59.7517 40.3769C60.3753 41.4994 60.5 42.6218 60.0011 42.8713C59.5022 43.1207 58.5045 42.6218 57.8809 41.4994C57.2574 40.3769 57.1326 39.2545 57.6315 39.0051C58.1304 38.7556 59.0034 39.3792 59.7517 40.3769Z" fill="#B1D8B0"/>
<path d="M59.7517 46.9867C60.3753 48.1091 60.5 49.2316 60.0011 49.481C59.5022 49.7304 58.5045 49.2316 57.8809 48.1091C57.2574 46.9867 57.1326 45.8642 57.6315 45.6148C58.1304 45.3654 59.0034 45.989 59.7517 46.9867Z" fill="#B1D8B0"/>
<path d="M50.3981 47.9846C51.0217 49.1071 51.1464 50.2295 50.6475 50.4789C50.1486 50.7284 49.1509 50.2295 48.5273 49.1071C47.9038 47.9846 47.779 46.8622 48.2779 46.6128C48.7768 46.3633 49.7745 46.8622 50.3981 47.9846Z" fill="#B1D8B0"/>
<path d="M59.5023 102.111L52.144 97.6212C52.144 97.6212 43.0398 80.161 47.6543 62.7008C51.3957 48.6079 65.6133 36.5105 83.323 45.8642C100.908 55.3426 107.144 68.5625 93.5497 86.5215C81.3275 102.859 65.8628 105.977 65.8628 105.977L59.5023 102.111Z" fill="#399648"/>
<path d="M85.1936 47.1108C99.6607 56.3398 103.901 68.8114 91.5542 85.3986C79.332 101.736 63.8672 104.854 63.8672 104.854L65.8627 106.101C65.8627 106.101 81.3275 102.859 93.5496 86.6457C106.52 69.1855 101.282 56.3398 85.1936 47.1108Z" fill="#497E44"/>
<path d="M67.4839 48.8577C66.8603 49.9802 65.8626 50.6037 65.3637 50.2296C64.8649 49.8555 64.9896 48.733 65.6132 47.7353C66.2368 46.6128 67.2345 45.9893 67.7333 46.3634C68.2322 46.6128 68.1075 47.7353 67.4839 48.8577Z" fill="#B1D8B0"/>
<path d="M72.4726 53.9706C71.849 55.0931 70.8513 55.7167 70.3524 55.3425C69.8535 54.9684 69.9783 53.8459 70.6018 52.8482C71.2254 51.7258 72.2231 51.1022 72.722 51.4763C73.2209 51.7258 73.0962 52.8482 72.4726 53.9706Z" fill="#B1D8B0"/>
<path d="M59.1281 53.2226C58.5045 54.345 57.5068 54.9686 57.0079 54.5945C56.509 54.2203 56.6338 53.0979 57.2573 52.1002C57.8809 50.9777 58.8786 50.3541 59.3775 50.7283C59.8764 50.9777 59.7517 52.1002 59.1281 53.2226Z" fill="#B1D8B0"/>
<path d="M64.7403 57.5873C64.1167 58.7098 63.119 59.3334 62.6201 58.9592C62.1213 58.5851 62.246 57.4626 62.8696 56.4649C63.4931 55.3425 64.4909 54.7189 64.9897 55.093C65.4886 55.3425 65.4886 56.4649 64.7403 57.5873Z" fill="#B1D8B0"/>
<path d="M77.3366 48.1091C76.713 49.2315 75.7153 49.8551 75.2164 49.481C74.7175 49.1068 74.8422 47.9844 75.4658 46.9866C76.0894 45.9889 77.0871 45.2406 77.586 45.6148C78.0849 45.9889 77.9601 47.1113 77.3366 48.1091Z" fill="#B1D8B0"/>
<path d="M69.6043 63.0753C68.9807 64.1977 67.983 64.8213 67.4841 64.4471C66.9853 64.073 67.11 62.9505 67.7336 61.9528C68.3571 60.8304 69.3549 60.2068 69.8537 60.5809C70.3526 60.8304 70.2279 61.9528 69.6043 63.0753Z" fill="#B1D8B0"/>
<path d="M81.0779 53.8463C80.4543 54.9687 79.4566 55.5923 78.9578 55.2181C78.4589 54.844 78.5836 53.7215 79.2072 52.7238C79.8308 51.6014 80.8285 50.9778 81.3274 51.3519C81.8262 51.7261 81.8262 52.8485 81.0779 53.8463Z" fill="#B1D8B0"/>
<path d="M87.8128 54.5943C87.1892 55.7167 86.1915 56.3403 85.6926 55.9662C85.1937 55.592 85.3185 54.4696 85.942 53.4719C86.5656 52.3494 87.5633 51.7258 88.0622 52.1C88.5611 52.3494 88.5611 53.4719 87.8128 54.5943Z" fill="#B1D8B0"/>
<path d="M78.9579 61.9527C78.3343 63.0751 77.3366 63.6987 76.8377 63.3246C76.3389 62.9504 76.4636 61.828 77.0871 60.8303C77.7107 59.7078 78.7085 59.0842 79.2073 59.4584C79.7062 59.8325 79.7062 60.955 78.9579 61.9527Z" fill="#B1D8B0"/>
<path d="M93.3003 60.4559C92.6767 61.5783 91.679 62.2019 91.1801 61.8277C90.6813 61.4536 90.806 60.3312 91.4296 59.3334C92.0532 58.211 93.0509 57.5874 93.5497 57.9616C94.0486 58.3357 93.9239 59.4581 93.3003 60.4559Z" fill="#B1D8B0"/>
<path d="M74.3433 69.5605C73.7197 70.6829 72.7219 71.3065 72.2231 70.9324C71.7242 70.5582 71.8489 69.4358 72.4725 68.438C73.0961 67.3156 74.0938 66.692 74.5927 67.0662C75.0916 67.4403 75.0916 68.5628 74.3433 69.5605Z" fill="#B1D8B0"/>
<path d="M86.0668 64.197C85.4432 65.3194 84.4455 65.943 83.9466 65.5688C83.4477 65.1947 83.5724 64.0722 84.196 63.0745C84.8196 61.9521 85.8173 61.3285 86.3162 61.7026C86.8151 62.0768 86.8151 63.1992 86.0668 64.197Z" fill="#B1D8B0"/>
<path d="M82.2005 71.6804C81.577 72.8028 80.5792 73.4264 80.0804 73.0522C79.5815 72.6781 79.7062 71.5556 80.3298 70.5579C80.9534 69.4355 81.9511 68.8119 82.45 69.186C82.9488 69.4355 82.8241 70.5579 82.2005 71.6804Z" fill="#B1D8B0"/>
<path d="M91.9283 69.8091C91.3048 70.9316 90.307 71.5552 89.8082 71.181C89.3093 70.8069 89.434 69.6844 90.0576 68.6867C90.6812 67.5643 91.6789 66.9407 92.1778 67.3148C92.6766 67.689 92.5519 68.8114 91.9283 69.8091Z" fill="#B1D8B0"/>
<path d="M98.5382 69.8091C97.9146 70.9316 96.9169 71.5552 96.418 71.181C95.9191 70.8069 96.0439 69.6844 96.6674 68.6867C97.291 67.5643 98.2887 66.9407 98.7876 67.3148C99.2865 67.5643 99.2865 68.6867 98.5382 69.8091Z" fill="#B1D8B0"/>
<path d="M86.3163 77.6669C85.6927 78.7894 84.695 79.413 84.1961 79.0388C83.6973 78.6647 83.822 77.5422 84.4456 76.5445C85.0691 75.422 86.0669 74.7985 86.5657 75.1726C87.0646 75.5468 86.9399 76.6692 86.3163 77.6669Z" fill="#B1D8B0"/>
<path d="M95.0463 77.6669C94.4227 78.7894 93.425 79.413 92.9262 79.0388C92.4273 78.6647 92.552 77.5422 93.1756 76.5445C93.7992 75.422 94.7969 74.7985 95.2958 75.1726C95.7946 75.422 95.7946 76.5445 95.0463 77.6669Z" fill="#B1D8B0"/>
<path d="M90.6812 85.0247C90.0576 86.1472 89.0599 86.7707 88.561 86.3966C88.0622 86.0224 88.1869 84.9 88.8105 83.9023C89.4341 82.7798 90.4318 82.1563 90.9307 82.5304C91.4295 82.7798 91.3048 83.9023 90.6812 85.0247Z" fill="#B1D8B0"/>
<path d="M54.2641 59.0842C53.6405 60.2066 52.6428 60.8302 52.1439 60.456C51.6451 60.0819 51.7698 58.9595 52.3934 57.9617C53.0169 56.8393 54.0147 56.2157 54.5135 56.5899C55.0124 56.964 54.8877 58.0864 54.2641 59.0842Z" fill="#B1D8B0"/>
<path d="M58.7539 64.197C58.1303 65.3194 57.1326 65.943 56.6337 65.5688C56.1348 65.1947 56.2596 64.0722 56.8831 63.0745C57.5067 61.9521 58.5044 61.3285 59.0033 61.7026C59.5022 61.9521 59.3775 63.0745 58.7539 64.197Z" fill="#B1D8B0"/>
<path d="M52.0194 68.3131C51.3958 69.4355 50.3981 70.0591 49.8992 69.6849C49.4003 69.3108 49.5251 68.1883 50.1486 67.1906C50.7722 66.0682 51.7699 65.4446 52.2688 65.8187C52.7677 66.0682 52.643 67.1906 52.0194 68.3131Z" fill="#B1D8B0"/>
<path d="M64.6156 69.1861C63.992 70.3085 62.9943 70.9321 62.4955 70.558C61.9966 70.1838 62.1213 69.0614 62.7449 68.0637C63.3685 66.9412 64.3662 66.3176 64.8651 66.6918C65.3639 67.0659 65.2392 68.0637 64.6156 69.1861Z" fill="#B1D8B0"/>
<path d="M56.6337 73.8002C56.0101 74.9227 55.0124 75.5463 54.5135 75.1721C54.0146 74.798 54.1393 73.6755 54.7629 72.6778C55.3865 71.5553 56.3842 70.9318 56.8831 71.3059C57.382 71.5553 57.2572 72.6778 56.6337 73.8002Z" fill="#B1D8B0"/>
<path d="M52.1441 81.1586C51.5205 82.2811 50.5227 82.9047 50.0239 82.5305C49.525 82.1564 49.6497 81.0339 50.2733 80.0362C50.8969 78.9138 51.8946 78.2902 52.3935 78.6643C52.8923 78.9137 52.7676 80.0362 52.1441 81.1586Z" fill="#B1D8B0"/>
<path d="M63.1188 75.7958C62.4952 76.9183 61.4975 77.5419 60.9986 77.1677C60.4998 76.7936 60.6245 75.6711 61.2481 74.6734C61.8717 73.551 62.8694 72.9274 63.3682 73.3015C63.8671 73.6757 63.7424 74.7981 63.1188 75.7958Z" fill="#B1D8B0"/>
<path d="M72.2232 76.0451C71.5996 77.1675 70.6019 77.7911 70.103 77.417C69.6042 77.0428 69.7289 75.9204 70.3525 74.9227C70.9761 73.8002 71.9738 73.1766 72.4727 73.5508C72.9715 73.8002 72.8468 74.9227 72.2232 76.0451Z" fill="#B1D8B0"/>
<path d="M77.0872 80.0362C76.4636 81.1586 75.4659 81.7822 74.967 81.4081C74.4682 81.0339 74.5929 79.9115 75.2165 78.9138C75.84 77.7913 76.8378 77.1677 77.3366 77.5419C77.8355 77.7913 77.7108 78.9138 77.0872 80.0362Z" fill="#B1D8B0"/>
<path d="M64.9897 83.0291C64.3661 84.1516 63.3684 84.7751 62.8695 84.401C62.3706 84.0268 62.4954 82.9044 63.1189 81.9067C63.7425 80.7842 64.7402 80.1607 65.2391 80.5348C65.738 80.7842 65.6132 81.9067 64.9897 83.0291Z" fill="#B1D8B0"/>
<path d="M81.2028 86.0228C80.5792 87.1452 79.5815 87.7688 79.0826 87.3946C78.5837 87.0205 78.7085 85.898 79.332 84.9003C79.9556 83.7779 80.9533 83.1543 81.4522 83.5285C81.9511 83.9026 81.8264 84.9003 81.2028 86.0228Z" fill="#B1D8B0"/>
<path d="M70.2279 87.2696C69.6043 88.392 68.6065 89.0156 68.1077 88.6415C67.6088 88.2673 67.7335 87.1449 68.3571 86.1471C68.9807 85.0247 69.9784 84.4011 70.4773 84.7753C70.9761 85.1494 70.8514 86.2719 70.2279 87.2696Z" fill="#B1D8B0"/>
<path d="M83.697 92.2581C83.0734 93.3806 82.0757 94.0041 81.5769 93.63C81.078 93.2558 81.2027 92.1334 81.8263 91.1357C82.4499 90.0132 83.4476 89.3897 83.9465 89.7638C84.4453 90.0132 84.3206 91.1357 83.697 92.2581Z" fill="#B1D8B0"/>
<path d="M73.0961 93.8799C72.4726 95.0024 71.4748 95.626 70.976 95.2518C70.4771 94.8777 70.6018 93.7552 71.2254 92.7575C71.849 91.6351 72.8467 91.0115 73.3456 91.3856C73.8444 91.6351 73.7197 92.7575 73.0961 93.8799Z" fill="#B1D8B0"/>
<path d="M59.0034 82.6555C58.3798 83.7779 57.3821 84.4015 56.8832 84.0273C56.3844 83.6532 56.5091 82.5307 57.1327 81.533C57.7562 80.4106 58.754 79.787 59.2528 80.1611C59.7517 80.4106 59.627 81.533 59.0034 82.6555Z" fill="#B1D8B0"/>
<path d="M61.6223 92.7568C60.9987 93.8792 60.001 94.5028 59.5022 94.1286C59.0033 93.7545 59.128 92.6321 59.7516 91.6343C60.3752 90.5119 61.3729 89.8883 61.8718 90.2625C62.3706 90.6366 62.2459 91.759 61.6223 92.7568Z" fill="#B1D8B0"/>
<path d="M78.2096 95.8748C77.5861 96.9973 76.5883 97.6208 76.0895 97.2467C75.5906 96.8725 75.7153 95.7501 76.3389 94.7524C76.9625 93.6299 77.9602 93.0064 78.4591 93.3805C78.9579 93.6299 78.8332 94.7524 78.2096 95.8748Z" fill="#B1D8B0"/>
<path d="M54.6383 89.8889C54.0147 91.0113 53.017 91.6349 52.5181 91.2607C52.0193 90.8866 52.144 89.7641 52.7676 88.7664C53.3911 87.644 54.3889 87.0204 54.8877 87.3945C55.3866 87.644 55.2619 88.7664 54.6383 89.8889Z" fill="#B1D8B0"/>
<path d="M67.3592 98.2447C66.7357 99.3671 65.7379 99.9907 65.2391 99.6166C64.7402 99.2424 64.8649 98.12 65.4885 97.1222C66.1121 95.9998 67.1098 95.3762 67.6087 95.7504C68.1075 95.9998 67.9828 97.1222 67.3592 98.2447Z" fill="#B1D8B0"/>
<path d="M56.8833 164.969H46.6566C46.6566 164.969 26.702 152.872 20.591 132.418C15.727 115.831 22.7111 94.7541 46.2824 93.3822C69.9784 92.0103 84.4454 101.613 81.7017 128.178C79.3321 152.248 65.6134 164.969 65.6134 164.969H56.8833Z" fill="#399648"/>
<path d="M49.1508 93.2573C69.4795 93.7562 81.4522 103.733 79.0826 128.053C76.713 152.123 62.9943 164.844 62.9943 164.844H65.8628C65.8628 164.844 79.4568 152.123 81.9511 128.053C84.4454 102.611 71.1008 92.8832 49.1508 93.2573Z" fill="#497E44"/>
<path d="M32.1895 106.103C32.1895 107.599 31.5659 108.847 30.8176 108.847C30.0693 108.847 29.4457 107.599 29.4457 106.103C29.4457 104.606 30.0693 103.359 30.8176 103.359C31.5659 103.359 32.1895 104.606 32.1895 106.103Z" fill="#B1D8B0"/>
<path d="M40.4206 108.098C40.4206 109.595 39.797 110.842 39.0487 110.842C38.3004 110.842 37.6769 109.595 37.6769 108.098C37.6769 106.602 38.3004 105.355 39.0487 105.355C39.9218 105.479 40.4206 106.602 40.4206 108.098Z" fill="#B1D8B0"/>
<path d="M26.4524 115.582C26.4524 117.078 25.8288 118.326 25.0805 118.326C24.3322 118.326 23.7086 117.078 23.7086 115.582C23.7086 114.085 24.3322 112.838 25.0805 112.838C25.8288 112.838 26.4524 114.085 26.4524 115.582Z" fill="#B1D8B0"/>
<path d="M34.8084 116.454C34.8084 117.951 34.1848 119.198 33.4365 119.198C32.6882 119.198 32.0647 117.951 32.0647 116.454C32.0647 114.958 32.6882 113.71 33.4365 113.71C34.1848 113.835 34.8084 114.958 34.8084 116.454Z" fill="#B1D8B0"/>
<path d="M41.7926 99.2439C41.7926 100.74 41.169 101.988 40.4207 101.988C39.6724 101.988 39.0488 100.74 39.0488 99.2439C39.0488 97.7473 39.6724 96.5001 40.4207 96.5001C41.169 96.6248 41.7926 97.7473 41.7926 99.2439Z" fill="#B1D8B0"/>
<path d="M43.0397 119.198C43.0397 120.695 42.4161 121.942 41.6678 121.942C40.9195 121.942 40.296 120.695 40.296 119.198C40.296 117.702 40.9195 116.455 41.6678 116.455C42.5408 116.455 43.0397 117.702 43.0397 119.198Z" fill="#B1D8B0"/>
<path d="M49.1508 102.735C49.1508 104.232 48.5272 105.479 47.7789 105.479C47.0307 105.479 46.4071 104.232 46.4071 102.735C46.4071 101.239 47.0307 99.9917 47.7789 99.9917C48.5272 100.116 49.1508 101.239 49.1508 102.735Z" fill="#B1D8B0"/>
<path d="M56.3844 99.2439C56.3844 100.74 55.7608 101.988 55.0125 101.988C54.2642 101.988 53.6406 100.74 53.6406 99.2439C53.6406 97.7473 54.2642 96.5001 55.0125 96.5001C55.7608 96.6248 56.3844 97.7473 56.3844 99.2439Z" fill="#B1D8B0"/>
<path d="M52.0193 112.339C52.0193 113.835 51.3957 115.083 50.6474 115.083C49.8991 115.083 49.2755 113.835 49.2755 112.339C49.2755 110.842 49.8991 109.595 50.6474 109.595C51.3957 109.595 52.0193 110.842 52.0193 112.339Z" fill="#B1D8B0"/>
<path d="M65.6133 101.987C65.6133 103.484 64.9897 104.731 64.2414 104.731C63.4931 104.731 62.8696 103.484 62.8696 101.987C62.8696 100.491 63.4931 99.2437 64.2414 99.2437C64.9897 99.2437 65.6133 100.491 65.6133 101.987Z" fill="#B1D8B0"/>
<path d="M52.0193 122.815C52.0193 124.312 51.3957 125.559 50.6474 125.559C49.8991 125.559 49.2755 124.312 49.2755 122.815C49.2755 121.319 49.8991 120.071 50.6474 120.071C51.3957 120.071 52.0193 121.319 52.0193 122.815Z" fill="#B1D8B0"/>
<path d="M60.6246 110.218C60.6246 111.715 60.0011 112.962 59.2528 112.962C58.5045 112.962 57.8809 111.715 57.8809 110.218C57.8809 108.722 58.5045 107.474 59.2528 107.474C60.0011 107.474 60.6246 108.722 60.6246 110.218Z" fill="#B1D8B0"/>
<path d="M59.8763 122.815C60.634 122.815 61.2482 121.586 61.2482 120.071C61.2482 118.556 60.634 117.327 59.8763 117.327C59.1187 117.327 58.5045 118.556 58.5045 120.071C58.5045 121.586 59.1187 122.815 59.8763 122.815Z" fill="#B1D8B0"/>
<path d="M69.8537 112.339C69.8537 113.835 69.2301 115.083 68.4818 115.083C67.7336 115.083 67.11 113.835 67.11 112.339C67.11 110.842 67.7336 109.595 68.4818 109.595C69.3549 109.595 69.8537 110.842 69.8537 112.339Z" fill="#B1D8B0"/>
<path d="M76.5882 108.098C76.5882 109.595 75.9646 110.842 75.2164 110.842C74.4681 110.842 73.8445 109.595 73.8445 108.098C73.8445 106.602 74.4681 105.355 75.2164 105.355C76.0894 105.479 76.5882 106.602 76.5882 108.098Z" fill="#B1D8B0"/>
<path d="M68.9806 123.688C68.9806 125.185 68.3571 126.432 67.6088 126.432C66.8605 126.432 66.2369 125.185 66.2369 123.688C66.2369 122.192 66.8605 120.944 67.6088 120.944C68.3571 121.069 68.9806 122.192 68.9806 123.688Z" fill="#B1D8B0"/>
<path d="M77.9602 118.325C77.9602 119.821 77.3366 121.068 76.5883 121.068C75.84 121.068 75.2164 119.821 75.2164 118.325C75.2164 116.828 75.84 115.581 76.5883 115.581C77.3366 115.581 77.9602 116.828 77.9602 118.325Z" fill="#B1D8B0"/>
<path d="M77.9602 128.427C77.9602 129.924 77.3366 131.171 76.5883 131.171C75.84 131.171 75.2164 129.924 75.2164 128.427C75.2164 126.931 75.84 125.684 76.5883 125.684C77.3366 125.684 77.9602 126.931 77.9602 128.427Z" fill="#B1D8B0"/>
<path d="M25.0806 124.686C25.0806 126.182 24.457 127.429 23.7087 127.429C22.9604 127.429 22.3368 126.182 22.3368 124.686C22.3368 123.189 22.9604 121.942 23.7087 121.942C24.5817 121.942 25.0806 123.189 25.0806 124.686Z" fill="#B1D8B0"/>
<path d="M32.6884 126.93C32.6884 128.426 32.0648 129.674 31.3165 129.674C30.5682 129.674 29.9446 128.426 29.9446 126.93C29.9446 125.433 30.5682 124.186 31.3165 124.186C32.1895 124.186 32.6884 125.433 32.6884 126.93Z" fill="#B1D8B0"/>
<path d="M28.5726 135.286C28.5726 136.783 27.949 138.03 27.2007 138.03C26.4524 138.03 25.8289 136.783 25.8289 135.286C25.8289 133.79 26.4524 132.543 27.2007 132.543C27.949 132.543 28.5726 133.79 28.5726 135.286Z" fill="#B1D8B0"/>
<path d="M41.7926 128.427C41.7926 129.924 41.169 131.171 40.4207 131.171C39.6724 131.171 39.0488 129.924 39.0488 128.427C39.0488 126.931 39.6724 125.684 40.4207 125.684C41.169 125.684 41.7926 126.931 41.7926 128.427Z" fill="#B1D8B0"/>
<path d="M35.1825 140.774C35.9402 140.774 36.5544 139.546 36.5544 138.031C36.5544 136.515 35.9402 135.287 35.1825 135.287C34.4249 135.287 33.8107 136.515 33.8107 138.031C33.8107 139.546 34.4249 140.774 35.1825 140.774Z" fill="#B1D8B0"/>
<path d="M36.5544 148.132C36.5544 149.629 35.9308 150.876 35.1825 150.876C34.4342 150.876 33.8107 149.629 33.8107 148.132C33.8107 146.635 34.4342 145.388 35.1825 145.388C35.9308 145.513 36.5544 146.635 36.5544 148.132Z" fill="#B1D8B0"/>
<path d="M44.4115 136.035C44.4115 137.532 43.7879 138.779 43.0396 138.779C42.2914 138.779 41.6678 137.532 41.6678 136.035C41.6678 134.539 42.2914 133.291 43.0396 133.291C43.7879 133.416 44.4115 134.539 44.4115 136.035Z" fill="#B1D8B0"/>
<path d="M53.7653 130.672C53.7653 132.168 53.1417 133.415 52.3934 133.415C51.6451 133.415 51.0215 132.168 51.0215 130.672C51.0215 129.175 51.6451 127.928 52.3934 127.928C53.1417 127.928 53.7653 129.175 53.7653 130.672Z" fill="#B1D8B0"/>
<path d="M61.1235 131.795C61.1235 133.291 60.4999 134.539 59.7516 134.539C59.0034 134.539 58.3798 133.291 58.3798 131.795C58.3798 130.298 59.0034 129.051 59.7516 129.051C60.6247 129.051 61.1235 130.298 61.1235 131.795Z" fill="#B1D8B0"/>
<path d="M50.6475 142.271C50.6475 143.768 50.0239 145.015 49.2756 145.015C48.5273 145.015 47.9037 143.768 47.9037 142.271C47.9037 140.774 48.5273 139.527 49.2756 139.527C50.0239 139.527 50.6475 140.774 50.6475 142.271Z" fill="#B1D8B0"/>
<path d="M68.9806 135.286C68.9806 136.783 68.3571 138.03 67.6088 138.03C66.8605 138.03 66.2369 136.783 66.2369 135.286C66.2369 133.79 66.8605 132.543 67.6088 132.543C68.3571 132.543 68.9806 133.79 68.9806 135.286Z" fill="#B1D8B0"/>
<path d="M58.6293 143.393C58.6293 144.89 58.0057 146.137 57.2574 146.137C56.5091 146.137 55.8855 144.89 55.8855 143.393C55.8855 141.896 56.5091 140.649 57.2574 140.649C58.0057 140.649 58.6293 141.896 58.6293 143.393Z" fill="#B1D8B0"/>
<path d="M75.3411 140.026C75.3411 141.522 74.7175 142.769 73.9692 142.769C73.2209 142.769 72.5974 141.522 72.5974 140.026C72.5974 138.529 73.2209 137.282 73.9692 137.282C74.7175 137.407 75.3411 138.529 75.3411 140.026Z" fill="#B1D8B0"/>
<path d="M65.6133 148.132C65.6133 149.629 64.9897 150.876 64.2414 150.876C63.4931 150.876 62.8696 149.629 62.8696 148.132C62.8696 146.635 63.4931 145.388 64.2414 145.388C64.9897 145.513 65.6133 146.635 65.6133 148.132Z" fill="#B1D8B0"/>
<path d="M44.4115 145.513C44.4115 147.01 43.7879 148.257 43.0396 148.257C42.2914 148.257 41.6678 147.01 41.6678 145.513C41.6678 144.017 42.2914 142.77 43.0396 142.77C43.7879 142.77 44.4115 144.017 44.4115 145.513Z" fill="#B1D8B0"/>
<path d="M53.2664 154.244C53.2664 155.74 52.6428 156.987 51.8945 156.987C51.1462 156.987 50.5227 155.74 50.5227 154.244C50.5227 152.747 51.1462 151.5 51.8945 151.5C52.6428 151.5 53.2664 152.747 53.2664 154.244Z" fill="#B1D8B0"/>
<path d="M71.9738 147.135C71.9738 148.631 71.3502 149.878 70.6019 149.878C69.8536 149.878 69.23 148.631 69.23 147.135C69.23 145.638 69.8536 144.391 70.6019 144.391C71.3502 144.391 71.9738 145.638 71.9738 147.135Z" fill="#B1D8B0"/>
<path d="M44.4115 155.491C44.4115 156.988 43.7879 158.235 43.0396 158.235C42.2914 158.235 41.6678 156.988 41.6678 155.491C41.6678 153.994 42.2914 152.747 43.0396 152.747C43.7879 152.872 44.4115 153.994 44.4115 155.491Z" fill="#B1D8B0"/>
<path d="M62.4955 156.114C62.4955 157.611 61.8719 158.858 61.1236 158.858C60.3753 158.858 59.7517 157.611 59.7517 156.114C59.7517 154.618 60.3753 153.37 61.1236 153.37C61.8719 153.37 62.4955 154.618 62.4955 156.114Z" fill="#B1D8B0"/>
<path d="M14.7298 159.232V167.962C14.7298 191.409 31.4417 210.615 51.7704 210.615H56.0107C76.3394 210.615 93.0513 191.409 93.0513 167.962V159.232H14.7298Z" fill="#ECC742"/>
<path d="M101.906 173.824H6.62331V175.196H101.906V173.824Z" fill="white"/>
<path d="M101.906 195.025H6.62336V196.397H101.906V195.025Z" fill="white"/>
<path opacity="0.1" d="M76.963 159.232V167.962C76.963 191.159 71.4755 210.241 51.2716 210.615C51.521 210.615 51.6457 210.615 51.8952 210.615H56.1355C76.4642 210.615 93.1761 191.409 93.1761 167.962V159.232H76.963Z" fill="#482C80"/>
<path d="M96.7928 154.992H11.2377V163.473H96.7928V154.992Z" fill="#D4A000"/>
</svg>
